<?xml version="1.0" standalone="no"?>
<!DOCTYPE svg PUBLIC "-//W3C//DTD SVG 20010904//EN"
 "http://www.w3.org/TR/2001/REC-SVG-20010904/DTD/svg10.dtd">
<svg version="1.0" xmlns="http://www.w3.org/2000/svg"
 width="128.000000pt" height="128.000000pt" viewBox="0 0 128.000000 128.000000"
 preserveAspectRatio="xMidYMid meet">

<g transform="translate(0.000000,128.000000) scale(0.100000,-0.100000)"
fill="#000000" stroke="none">
<path d="M84 1273 c-12 -2 -34 -18 -50 -34 l-29 -30 0 -569 0 -570 33 -32 32
-33 165 -3 165 -4 0 41 0 41 -148 0 c-102 0 -152 4 -160 12 -17 17 -17 1079 0
1096 9 9 94 12 320 12 l308 0 0 -86 c0 -136 16 -153 148 -154 l92 0 0 -60 0
-60 40 0 40 0 0 87 0 88 -132 132 -133 133 -335 -1 c-184 -1 -345 -4 -356 -6z"/>
<path d="M412 628 c-8 -8 -12 -67 -12 -200 l0 -188 40 0 40 0 0 60 0 60 74 0
c66 0 76 3 100 26 24 25 26 33 26 114 0 81 -2 89 -26 114 -25 25 -32 26 -128
26 -66 0 -106 -4 -114 -12z m188 -128 l0 -60 -60 0 -60 0 0 60 0 60 60 0 60 0
0 -60z"/>
<path d="M732 628 c-17 -17 -17 -359 0 -376 8 -8 48 -12 114 -12 96 0 103 1
128 26 26 26 26 28 26 174 0 146 0 148 -26 174 -25 25 -32 26 -128 26 -66 0
-106 -4 -114 -12z m188 -188 l0 -120 -60 0 -60 0 0 120 0 120 60 0 60 0 0
-120z"/>
<path d="M1052 628 c-8 -8 -12 -67 -12 -200 l0 -188 40 0 40 0 0 80 0 80 80 0
80 0 0 40 0 40 -80 0 -80 0 0 40 0 40 80 0 80 0 0 40 0 40 -108 0 c-71 0 -112
-4 -120 -12z"/>
</g>
</svg>
